<mxfile host="app.diagrams.net" agent="Mozilla/5.0 (Windows NT 10.0; Win64; x64) AppleWebKit/537.36 (KHTML, like Gecko) Chrome/136.0.0.0 Safari/537.36 Edg/136.0.0.0" version="27.1.4">
  <diagram name="PÃ¡gina-1" id="d5TdXhuqiAQP_-k-uD2d">
    <mxGraphModel dx="1480" dy="874" grid="1" gridSize="10" guides="1" tooltips="1" connect="1" arrows="1" fold="1" page="1" pageScale="1" pageWidth="827" pageHeight="1169" math="0" shadow="0">
      <root>
        <mxCell id="0" />
        <mxCell id="1" parent="0" />
        <mxCell id="b2PVBUJSgyilsKvjuCGa-19" style="edgeStyle=orthogonalEdgeStyle;rounded=0;orthogonalLoop=1;jettySize=auto;html=1;entryX=0.5;entryY=0;entryDx=0;entryDy=0;" edge="1" parent="1" source="b2PVBUJSgyilsKvjuCGa-1" target="b2PVBUJSgyilsKvjuCGa-3">
          <mxGeometry relative="1" as="geometry" />
        </mxCell>
        <mxCell id="b2PVBUJSgyilsKvjuCGa-1" value="Inicio" style="ellipse;whiteSpace=wrap;html=1;" vertex="1" parent="1">
          <mxGeometry x="334" y="40" width="120" height="80" as="geometry" />
        </mxCell>
        <mxCell id="b2PVBUJSgyilsKvjuCGa-21" style="edgeStyle=orthogonalEdgeStyle;rounded=0;orthogonalLoop=1;jettySize=auto;html=1;" edge="1" parent="1" source="b2PVBUJSgyilsKvjuCGa-2" target="b2PVBUJSgyilsKvjuCGa-4">
          <mxGeometry relative="1" as="geometry" />
        </mxCell>
        <mxCell id="b2PVBUJSgyilsKvjuCGa-2" value="Escreva P" style="shape=document;whiteSpace=wrap;html=1;boundedLbl=1;" vertex="1" parent="1">
          <mxGeometry x="334" y="230" width="120" height="80" as="geometry" />
        </mxCell>
        <mxCell id="b2PVBUJSgyilsKvjuCGa-20" style="edgeStyle=orthogonalEdgeStyle;rounded=0;orthogonalLoop=1;jettySize=auto;html=1;exitX=0.5;exitY=1;exitDx=0;exitDy=0;entryX=0.5;entryY=0;entryDx=0;entryDy=0;" edge="1" parent="1" source="b2PVBUJSgyilsKvjuCGa-3" target="b2PVBUJSgyilsKvjuCGa-2">
          <mxGeometry relative="1" as="geometry" />
        </mxCell>
        <mxCell id="b2PVBUJSgyilsKvjuCGa-3" value="P,E,M" style="rounded=0;whiteSpace=wrap;html=1;" vertex="1" parent="1">
          <mxGeometry x="334" y="150" width="120" height="60" as="geometry" />
        </mxCell>
        <mxCell id="b2PVBUJSgyilsKvjuCGa-22" style="edgeStyle=orthogonalEdgeStyle;rounded=0;orthogonalLoop=1;jettySize=auto;html=1;exitX=0.5;exitY=1;exitDx=0;exitDy=0;" edge="1" parent="1" source="b2PVBUJSgyilsKvjuCGa-4" target="b2PVBUJSgyilsKvjuCGa-5">
          <mxGeometry relative="1" as="geometry" />
        </mxCell>
        <mxCell id="b2PVBUJSgyilsKvjuCGa-4" value="Leia P" style="shape=parallelogram;perimeter=parallelogramPerimeter;whiteSpace=wrap;html=1;fixedSize=1;" vertex="1" parent="1">
          <mxGeometry x="334" y="340" width="120" height="60" as="geometry" />
        </mxCell>
        <mxCell id="b2PVBUJSgyilsKvjuCGa-13" style="edgeStyle=orthogonalEdgeStyle;rounded=0;orthogonalLoop=1;jettySize=auto;html=1;" edge="1" parent="1" source="b2PVBUJSgyilsKvjuCGa-5" target="b2PVBUJSgyilsKvjuCGa-8">
          <mxGeometry relative="1" as="geometry" />
        </mxCell>
        <mxCell id="b2PVBUJSgyilsKvjuCGa-17" style="edgeStyle=orthogonalEdgeStyle;rounded=0;orthogonalLoop=1;jettySize=auto;html=1;entryX=0.426;entryY=-0.062;entryDx=0;entryDy=0;entryPerimeter=0;" edge="1" parent="1" source="b2PVBUJSgyilsKvjuCGa-5" target="b2PVBUJSgyilsKvjuCGa-16">
          <mxGeometry relative="1" as="geometry">
            <mxPoint x="234" y="450" as="targetPoint" />
          </mxGeometry>
        </mxCell>
        <mxCell id="b2PVBUJSgyilsKvjuCGa-5" value="Se P &amp;gt; 50" style="rhombus;whiteSpace=wrap;html=1;" vertex="1" parent="1">
          <mxGeometry x="354" y="420" width="80" height="80" as="geometry" />
        </mxCell>
        <mxCell id="b2PVBUJSgyilsKvjuCGa-14" style="edgeStyle=orthogonalEdgeStyle;rounded=0;orthogonalLoop=1;jettySize=auto;html=1;exitX=0.5;exitY=1;exitDx=0;exitDy=0;entryX=0.5;entryY=0;entryDx=0;entryDy=0;" edge="1" parent="1" source="b2PVBUJSgyilsKvjuCGa-8" target="b2PVBUJSgyilsKvjuCGa-9">
          <mxGeometry relative="1" as="geometry" />
        </mxCell>
        <mxCell id="b2PVBUJSgyilsKvjuCGa-8" value="E = P - 50" style="shape=process;whiteSpace=wrap;html=1;backgroundOutline=1;" vertex="1" parent="1">
          <mxGeometry x="524" y="430" width="120" height="60" as="geometry" />
        </mxCell>
        <mxCell id="b2PVBUJSgyilsKvjuCGa-15" style="edgeStyle=orthogonalEdgeStyle;rounded=0;orthogonalLoop=1;jettySize=auto;html=1;exitX=0.5;exitY=1;exitDx=0;exitDy=0;entryX=0.5;entryY=0;entryDx=0;entryDy=0;" edge="1" parent="1" source="b2PVBUJSgyilsKvjuCGa-9" target="b2PVBUJSgyilsKvjuCGa-10">
          <mxGeometry relative="1" as="geometry">
            <Array as="points">
              <mxPoint x="584" y="620" />
              <mxPoint x="394" y="620" />
            </Array>
          </mxGeometry>
        </mxCell>
        <mxCell id="b2PVBUJSgyilsKvjuCGa-9" value="M = E*4" style="shape=process;whiteSpace=wrap;html=1;backgroundOutline=1;" vertex="1" parent="1">
          <mxGeometry x="524" y="540" width="120" height="60" as="geometry" />
        </mxCell>
        <mxCell id="b2PVBUJSgyilsKvjuCGa-10" value="Valor M e Excesso E" style="shape=document;whiteSpace=wrap;html=1;boundedLbl=1;" vertex="1" parent="1">
          <mxGeometry x="334" y="650" width="120" height="80" as="geometry" />
        </mxCell>
        <mxCell id="b2PVBUJSgyilsKvjuCGa-18" style="edgeStyle=orthogonalEdgeStyle;rounded=0;orthogonalLoop=1;jettySize=auto;html=1;exitX=0.5;exitY=1;exitDx=0;exitDy=0;" edge="1" parent="1" source="b2PVBUJSgyilsKvjuCGa-16" target="b2PVBUJSgyilsKvjuCGa-10">
          <mxGeometry relative="1" as="geometry" />
        </mxCell>
        <mxCell id="b2PVBUJSgyilsKvjuCGa-16" value="E=0 e M=0" style="shape=process;whiteSpace=wrap;html=1;backgroundOutline=1;" vertex="1" parent="1">
          <mxGeometry x="184" y="530" width="120" height="60" as="geometry" />
        </mxCell>
      </root>
    </mxGraphModel>
  </diagram>
</mxfile>
